# xmcd CD database file
#
# Track frame offsets:
#	150
#	20150
#	44393
#	70667
#	103837
#	123822
#	152183
#	173702
#	203412
#	228774
#	263300
#
# Disc length: 3827 seconds
#
# Revision: 0
# Processed by: cddbd v1.5.2PL0 Copyright (c) Steve Scherf et al.
# Submitted via: CDex 1.51
#
DISCID=820ef10b
DTITLE=Peter Beets - New Groove
DYEAR=2007
DGENRE=Jazz
TTITLE0=You Are My Everything
TTITLE1=I'm Old Fashioned
TTITLE2=Blues For Giltay
TTITLE3=In Your Own Sweet Way
TTITLE4=They Say It's Wonderful
TTITLE5=Nuages
TTITLE6=Three Little Words
TTITLE7=Easy Listening Blues
TTITLE8=Parker 51
TTITLE9=But Beautiful
TTITLE10=Tricotism
EXTD=YEAR: 2007
EXTT0=
EXTT1=
EXTT2=
EXTT3=
EXTT4=
EXTT5=
EXTT6=
EXTT7=
EXTT8=
EXTT9=
EXTT10=
PLAYORDER=
